<svg xmlns="http://www.w3.org/2000/svg" viewBox="0 0 64 64" role="img" aria-label="Skintristic favicon">
  <defs>
    <linearGradient id="bg" x1="0" y1="0" x2="1" y2="1">
      <stop offset="0%" stop-color="#1A1B1C" />
      <stop offset="100%" stop-color="#3A3D41" />
    </linearGradient>
  </defs>
  <rect x="4" y="4" width="56" height="56" rx="14" fill="url(#bg)" />
  <path d="M42.2 21.2C39.9 18.8 36.7 17.5 32.9 17.5C26.7 17.5 21.9 21 21.9 26.3C21.9 31.5 26.2 33.3 31.4 34.5C35.8 35.6 38.1 36.7 38.1 39C38.1 41.4 35.6 43.1 32 43.1C28.6 43.1 25.8 41.8 23.2 39.5L19.3 43.9C22.5 47.1 27.1 49 31.9 49C38.8 49 44.4 45.3 44.4 39.2C44.4 33.8 40.5 31.6 34.9 30.2C30.7 29.1 28.2 28.2 28.2 25.8C28.2 23.7 30.2 22 33.2 22C36 22 38.3 22.9 40.4 24.8L42.2 21.2Z" fill="#FCFCFC" />
</svg>
