<svg width="1920" height="64" viewBox="0 0 1920 64" fill="none" xmlns="http://www.w3.org/2000/svg">
<path d="M36.158 37.112C38.314 37.112 39.812 36.006 39.812 34.186C39.812 30.364 34.478 31.988 34.478 29.818C34.478 29.132 35.08 28.684 36.046 28.684C37.082 28.684 37.754 29.258 37.838 30.112H39.602C39.518 28.278 38.118 27.088 36.046 27.088C34.058 27.088 32.672 28.208 32.672 29.818C32.672 33.57 37.936 32.114 37.936 34.214C37.936 35.082 37.208 35.502 36.158 35.502C34.982 35.502 34.254 34.802 34.156 33.71H32.378C32.476 35.768 33.932 37.112 36.158 37.112ZM49.3311 37L45.3691 31.092L48.9671 27.2H46.6571L42.7231 31.47V27.2H40.8611V37H42.7231V33.948L44.0951 32.464L47.0351 37H49.3311ZM51.9451 37V27.2H50.0831V37H51.9451ZM55.3835 37V30.098L59.6395 37H61.6275V27.2H59.7795V34.116L55.5375 27.2H53.5355V37H55.3835ZM66.4423 37.112C68.5983 37.112 70.0963 36.006 70.0963 34.186C70.0963 30.364 64.7623 31.988 64.7623 29.818C64.7623 29.132 65.3643 28.684 66.3303 28.684C67.3663 28.684 68.0383 29.258 68.1223 30.112H69.8863C69.8023 28.278 68.4023 27.088 66.3303 27.088C64.3423 27.088 62.9563 28.208 62.9563 29.818C62.9563 33.57 68.2203 32.114 68.2203 34.214C68.2203 35.082 67.4923 35.502 66.4423 35.502C65.2663 35.502 64.5383 34.802 64.4403 33.71H62.6623C62.7603 35.768 64.2163 37.112 66.4423 37.112ZM74.9033 37V28.796H77.8573V27.2H70.0873V28.796H73.0553V37H74.9033ZM85.6067 34.382C85.5367 33.486 85.1027 32.758 84.4307 32.338C85.2427 31.918 85.7467 31.232 85.7467 30.224C85.7467 28.446 84.5427 27.2 82.4987 27.2H78.4807V37H80.3427V33.318H82.4567C83.1847 33.318 83.7027 33.85 83.7727 34.592L84.0107 37H85.8447L85.6067 34.382ZM82.4147 28.754C83.5067 28.754 83.9547 29.44 83.9547 30.224C83.9547 31.008 83.5067 31.722 82.4147 31.722H80.3427V28.754H82.4147ZM89.3322 37V27.2H87.4702V37H89.3322ZM95.3466 37.112C97.7546 37.112 99.5466 35.726 99.7426 33.696H97.8946C97.7266 34.76 96.6906 35.502 95.3466 35.502C93.6386 35.502 92.3506 34.326 92.3506 32.1C92.3506 29.874 93.6386 28.684 95.3466 28.684C96.6626 28.684 97.6986 29.426 97.8386 30.504H99.7706C99.5046 28.474 97.7126 27.088 95.3466 27.088C92.7846 27.088 90.4886 28.768 90.4886 32.1C90.4886 35.432 92.7426 37.112 95.3466 37.112Z" fill="#1A1B1C"/>
<g opacity="0.6">
<path d="M121 40H119C117.895 40 117 39.1046 117 38V25C117 23.8954 117.895 23 119 23H121" stroke="#1A1B1C"/>
<path d="M129.8 37V27.2H127.938V37H129.8ZM133.238 37V30.098L137.494 37H139.482V27.2H137.634V34.116L133.392 27.2H131.39V37H133.238ZM145.081 37V28.796H148.035V27.2H140.265V28.796H143.233V37H145.081ZM155.785 34.382C155.715 33.486 155.281 32.758 154.609 32.338C155.421 31.918 155.925 31.232 155.925 30.224C155.925 28.446 154.721 27.2 152.677 27.2H148.659V37H150.521V33.318H152.635C153.363 33.318 153.881 33.85 153.951 34.592L154.189 37H156.023L155.785 34.382ZM152.593 28.754C153.685 28.754 154.133 29.44 154.133 30.224C154.133 31.008 153.685 31.722 152.593 31.722H150.521V28.754H152.593ZM161.651 37.112C164.493 37.112 166.593 34.984 166.593 32.1C166.593 29.216 164.493 27.088 161.651 27.088C158.795 27.088 156.695 29.216 156.695 32.1C156.695 34.984 158.795 37.112 161.651 37.112ZM161.637 35.502C159.859 35.502 158.557 34.06 158.557 32.1C158.557 30.14 159.859 28.684 161.637 28.684C163.429 28.684 164.731 30.14 164.731 32.1C164.731 34.06 163.429 35.502 161.637 35.502Z" fill="#1A1B1C"/>
<path d="M174 40H176C177.105 40 178 39.1046 178 38V25C178 23.8954 177.105 23 176 23H174" stroke="#1A1B1C"/>
</g>

</svg>
